<svg xmlns="http://www.w3.org/2000/svg" width="100mm" height="50mm" viewBox="0 0 142 71">
        <rect x="0" y="0" width="142" height="71" fill="#ffffff" stroke="#000000" stroke-width="1"></rect> 
        <g fill="#000000">
          <text x="47" y="24" dy="6" font-size="6">C1UL-2仪表板左饰条</text>
          <text x="47" y="42" dy="6" font-size="6">42897276-A-00001-20240204</text>
        </g>
      <svg xmlns="http://www.w3.org/2000/svg" width="38" height="38" x="6" y="17" viewBox="0 0 29 29">
<path fill="#ffffff" d="M0,0 h29v29H0z"></path>
<path fill="#000000" d="M0 0h7v1H0zM8 0h2v1H8zM11 0h3v1H11zM15 0h1v1H15zM18 0h1v1H18zM22,0 h7v1H22zM0 1h1v1H0zM6 1h1v1H6zM11 1h1v1H11zM14 1h2v1H14zM17 1h1v1H17zM22 1h1v1H22zM28,1 h1v1H28zM0 2h1v1H0zM2 2h3v1H2zM6 2h1v1H6zM9 2h7v1H9zM17 2h3v1H17zM22 2h1v1H22zM24 2h3v1H24zM28,2 h1v1H28zM0 3h1v1H0zM2 3h3v1H2zM6 3h1v1H6zM8 3h1v1H8zM15 3h2v1H15zM18 3h1v1H18zM22 3h1v1H22zM24 3h3v1H24zM28,3 h1v1H28zM0 4h1v1H0zM2 4h3v1H2zM6 4h1v1H6zM9 4h3v1H9zM13 4h4v1H13zM20 4h1v1H20zM22 4h1v1H22zM24 4h3v1H24zM28,4 h1v1H28zM0 5h1v1H0zM6 5h1v1H6zM9 5h1v1H9zM14 5h4v1H14zM19 5h1v1H19zM22 5h1v1H22zM28,5 h1v1H28zM0 6h7v1H0zM8 6h1v1H8zM10 6h1v1H10zM12 6h1v1H12zM14 6h1v1H14zM16 6h1v1H16zM18 6h1v1H18zM20 6h1v1H20zM22,6 h7v1H22zM10 7h1v1H10zM13 7h2v1H13zM16 7h4v1H16zM2 8h1v1H2zM4 8h3v1H4zM8 8h3v1H8zM12 8h1v1H12zM14 8h3v1H14zM18 8h1v1H18zM21 8h1v1H21zM25 8h1v1H25zM28,8 h1v1H28zM0 9h1v1H0zM9 9h2v1H9zM12 9h1v1H12zM14 9h1v1H14zM17 9h3v1H17zM21 9h1v1H21zM23 9h1v1H23zM27,9 h2v1H27zM1 10h1v1H1zM3 10h4v1H3zM8 10h2v1H8zM11 10h2v1H11zM14 10h2v1H14zM17 10h2v1H17zM21 10h1v1H21zM24 10h1v1H24zM26,10 h3v1H26zM0 11h6v1H0zM9 11h1v1H9zM11 11h1v1H11zM16 11h2v1H16zM19 11h1v1H19zM22 11h2v1H22zM25 11h1v1H25zM28,11 h1v1H28zM0 12h3v1H0zM5 12h3v1H5zM9 12h2v1H9zM13 12h1v1H13zM15 12h1v1H15zM18 12h1v1H18zM20 12h1v1H20zM22 12h1v1H22zM24 12h1v1H24zM2 13h4v1H2zM9 13h2v1H9zM16 13h1v1H16zM19 13h1v1H19zM22 13h2v1H22zM25 13h1v1H25zM27 13h1v1H27zM3 14h2v1H3zM6 14h1v1H6zM8 14h1v1H8zM10 14h4v1H10zM15 14h2v1H15zM18 14h1v1H18zM20 14h2v1H20zM28,14 h1v1H28zM3 15h2v1H3zM10 15h1v1H10zM12 15h1v1H12zM14 15h2v1H14zM18 15h2v1H18zM21 15h4v1H21zM26 15h2v1H26zM2 16h1v1H2zM5 16h4v1H5zM10 16h1v1H10zM12 16h1v1H12zM14 16h3v1H14zM18 16h1v1H18zM20 16h2v1H20zM24 16h1v1H24zM28,16 h1v1H28zM2 17h1v1H2zM7 17h2v1H7zM14 17h3v1H14zM19 17h3v1H19zM23 17h2v1H23zM26 17h2v1H26zM0 18h1v1H0zM4 18h1v1H4zM6 18h4v1H6zM11 18h3v1H11zM15 18h1v1H15zM17 18h1v1H17zM19 18h3v1H19zM24 18h3v1H24zM1 19h4v1H1zM12 19h2v1H12zM15 19h1v1H15zM17 19h1v1H17zM20 19h1v1H20zM22 19h2v1H22zM25 19h1v1H25zM27 19h1v1H27zM0 20h1v1H0zM2 20h1v1H2zM6 20h2v1H6zM9 20h3v1H9zM13 20h1v1H13zM17 20h8v1H17zM26 20h2v1H26zM8 21h2v1H8zM11 21h1v1H11zM15 21h2v1H15zM19 21h2v1H19zM24 21h2v1H24zM28,21 h1v1H28zM0 22h7v1H0zM12 22h3v1H12zM16 22h1v1H16zM19 22h2v1H19zM22 22h1v1H22zM24 22h1v1H24zM27,22 h2v1H27zM0 23h1v1H0zM6 23h1v1H6zM8 23h1v1H8zM10 23h1v1H10zM13 23h1v1H13zM16 23h5v1H16zM24 23h1v1H24zM28,23 h1v1H28zM0 24h1v1H0zM2 24h3v1H2zM6 24h1v1H6zM8 24h1v1H8zM10 24h1v1H10zM15 24h10v1H15zM26 24h1v1H26zM28,24 h1v1H28zM0 25h1v1H0zM2 25h3v1H2zM6 25h1v1H6zM9 25h2v1H9zM12 25h4v1H12zM18 25h3v1H18zM22 25h2v1H22zM25 25h1v1H25zM27 25h1v1H27zM0 26h1v1H0zM2 26h3v1H2zM6 26h1v1H6zM8 26h1v1H8zM12 26h1v1H12zM14 26h1v1H14zM17 26h4v1H17zM23 26h2v1H23zM28,26 h1v1H28zM0 27h1v1H0zM6 27h1v1H6zM9 27h2v1H9zM12 27h2v1H12zM15 27h3v1H15zM21 27h1v1H21zM24 27h1v1H24zM26,27 h3v1H26zM0 28h7v1H0zM9 28h1v1H9zM11 28h1v1H11zM13 28h6v1H13zM20 28h4v1H20zM25 28h2v1H25zM28,28 h1v1H28z"></path>
</svg></svg>